PathFileType	4	(X/Y/Z)	pose_F01_0-93.trc
DataRate	CameraRate	NumFrames	NumMarkers	Units	OrigDataRate	OrigDataStartFrame	OrigNumFrames
30	30	17	21	m	30	37	93
Frame#	Time	CHip			RHip			RKnee			RAnkle			RBigToe			RSmallToe			RHeel			LHip			LKnee			LAnkle			LBigToe			LSmallToe			LHeel			Neck			Nose			RShoulder			RElbow			RWrist			LShoulder			LElbow			LWrist			
		X1	Y1	Z1	X2	Y2	Z2	X3	Y3	Z3	X4	Y4	Z4	X5	Y5	Z5	X6	Y6	Z6	X7	Y7	Z7	X8	Y8	Z8	X9	Y9	Z9	X10	Y10	Z10	X11	Y11	Z11	X12	Y12	Z12	X13	Y13	Z13	X14	Y14	Z14	X15	Y15	Z15	X16	Y16	Z16	X17	Y17	Z17	X18	Y18	Z18	X19	Y19	Z19	X20	Y20	Z20	X21	Y21	Z21	
37	1.2333333333333334	-0.2743830086166237	1.8406872399957468	-0.5736182883278508	-0.28998296889413216	1.8392605597294487	-0.5106394310199653																-0.2615772111014021	1.8421697240764723	-0.6336439106348049																-0.2773563186850427	1.9936256683809486	-0.6039390373503775	-0.2620817167909866	2.063387848388462	-0.5983955822329108	-0.2953339234525108	1.9872240615223102	-0.5209493505420221	-0.3025843099268713	1.904964474229265	-0.46806678054748807	-0.3103047913253154	1.833885648145729	-0.4203654661583002	-0.2609693413185448	2.000891063542706	-0.6905164518078488	-0.20468260925994652	1.991940797186296	-0.7211458737653195	-0.23758531508588884	2.033407450178844	-0.6386210873240193
38	1.2666666666666666	-0.27438486050288613	1.8416237799804687	-0.5736960352549875	-0.28987975192492277	1.839905738936488	-0.5111638227851457																-0.26195069447672914	1.8431885126098086	-0.6319724067549342																-0.2772520538367467	1.9927888304361931	-0.6036339169825803	-0.26306402089281594	2.06402873132437	-0.6013259261168836	-0.2952798866979191	1.9843879679989558	-0.5203703642629198	-0.30246925708712774	1.9059367296719294	-0.46818828673913115	-0.3101605478980128	1.8322873036083098	-0.4202118456948593	-0.25794596310630474	1.99953362959732	-0.6893635215124757	-0.20754616251570376	2.0028480955915455	-0.7233588564545792	-0.2336685559418189	2.0419052209340034	-0.6364869535000798
39	1.3	-0.2743867123891485	1.8425603199651903	-0.5737737821821243	-0.28977653495571337	1.8405509181435271	-0.511688214550326																-0.26232417785205614	1.8442073011431448	-0.6303009028750636																-0.2770384984623402	1.9944718297444626	-0.6035350410426985	-0.26382284478460194	2.067264634933369	-0.6048531439824212	-0.2950907848293955	1.9859805544078486	-0.5202004637182543	-0.3054925313412971	1.905267327441419	-0.4690751438618594	-0.31058900168677966	1.8343585454277698	-0.42026421317829254	-0.2578367887893521	1.9995439206903511	-0.6892922942607416	-0.20731922984865606	2.0105994560812444	-0.724189315224367	-0.23042704603429717	2.047460522933521	-0.6369228789532522
40	1.3333333333333333	-0.274388564275411	1.8434968599499122	-0.573851529109261	-0.289673317986504	1.8411960973505663	-0.5122126063155062																-0.2626976612273832	1.8452260896764812	-0.6286293989951929																-0.27732206564034484	1.99406336736863	-0.6040119417470169	-0.2667942441573678	2.070380802493563	-0.606649046959309	-0.2962235887511945	1.987096536996703	-0.5238194266530025	-0.3057571352659369	1.9073093857240544	-0.46964617253291113	-0.31040812333807677	1.8350324847162505	-0.4203914477023267	-0.2571783631495879	1.9984509989581156	-0.6862667858108907	-0.20425561353100383	2.0195154560710606	-0.7250260157877053	-0.22848150536475612	2.054469644053309	-0.6410595101704982
41	1.3666666666666667	-0.27439041616167337	1.844433399934634	-0.5739292760363977	-0.28957010101729463	1.8418412765576058	-0.5127369980806865																-0.2623555467239292	1.846618483452745	-0.6290974659598658																-0.27714835325470916	1.9931660340765527	-0.6036071009961955	-0.26759110173294254	2.0726137751175826	-0.60939696956584	-0.296150318806246	1.9859088765265274	-0.5234050898536408	-0.3057993036996486	1.9050849994040813	-0.4691813061911518	-0.31054552265827684	1.8332948683701062	-0.4198732348262119	-0.254017036524086	1.9988326106318592	-0.6853884572881049	-0.20169329686536056	2.026081918905364	-0.7172022041379064	-0.2260847886575661	2.0628590911788915	-0.6347638090302151
42	1.4	-0.2743922680479358	1.8453699399193557	-0.5740070229635345	-0.28946688404808524	1.842486455764645	-0.5132613898458668																-0.2620134322204752	1.848010877229009	-0.6295655329245387																-0.2781147373536318	1.9951188857365851	-0.6070238599402626	-0.2685333871842001	2.0732936591555293	-0.6124876119414777	-0.299205932022375	1.9870869369741224	-0.524858557486778	-0.305645339294067	1.906614177852277	-0.4694053606357071	-0.3103934062401055	1.834107368576399	-0.4201675034874388	-0.2547733535936887	2.000247118653311	-0.6883089458616695	-0.20248747925502375	2.033695877159856	-0.7119223337251809	-0.22176610670977012	2.0679168663239267	-0.6399697601380971
43	1.4333333333333333	-0.2743941199341982	1.8463064799040776	-0.5740847698906711	-0.28936366707887584	1.8431316349716842	-0.5137857816110472																-0.2616713177170212	1.849403271005273	-0.6300335998892116																-0.27714719695536627	1.995139982793329	-0.6039316561924659	-0.26629968668243414	2.073452873884772	-0.6139448454608714	-0.29624840802197805	1.987058278785033	-0.5238193571621351	-0.30568148719879984	1.906084568532035	-0.46946924444318067	-0.3123543787552671	1.8314641535656726	-0.4179105296782589	-0.25376662122353827	2.0016508333871528	-0.6852453874345068	-0.2039590001577929	2.0381443801295576	-0.7181532303993303	-0.22840423451978595	2.0808686250846677	-0.6470060590068665
44	1.4666666666666666	-0.27439597182046066	1.8472430198887995	-0.5741625168178078	-0.2892604501096665	1.8437768141787236	-0.5143101733762274																-0.2613292032135672	1.850795664781537	-0.6305016668538845																-0.27712019492030526	1.99521257205521	-0.6039961833381251	-0.2664757830668515	2.0730991426171594	-0.6056896934604858	-0.296269978511872	1.9870418118414077	-0.5239327100231574	-0.3068487099986008	1.905167885420648	-0.472519124216834	-0.3135204608105036	1.8327874287498436	-0.42122111539789314	-0.25387257219560544	2.0015025353936386	-0.6856555406067116	-0.20573202078331815	2.0396577374300735	-0.7248429766665858	-0.23003555612964766	2.0852900918361303	-0.6537473251901598
45	1.5	-0.27439782370672305	1.8481795598735211	-0.5742402637449446	-0.2891572331404571	1.8444219933857628	-0.5148345651414077																-0.26098708871011317	1.8521880585578008	-0.6309697338185574																-0.2769865889425389	1.9944485196411499	-0.6035403793179551	-0.2667251171940874	2.074629285417985	-0.6067829174012845	-0.2961369188186795	1.9855341679836427	-0.5233633298308967	-0.30375522986754705	1.9062969355333415	-0.4715486806538365	-0.31272829180377226	1.8330635119188117	-0.42658551472512546	-0.25380086348959247	2.0005597539606828	-0.6852673053153492	-0.2075050414088434	2.041171094730589	-0.7315327229338412	-0.2316668777395094	2.0897115585875934	-0.660488591373453
46	1.5333333333333334	-0.2743996755929855	1.849116099858243	-0.5743180106720813	-0.2890540161712477	1.845067172592802	-0.515358956906588																-0.26064497420665916	1.8535804523340647	-0.6314378007832303																-0.2740633820156634	1.9958028035066857	-0.6029444380906441	-0.26556526647694	2.0767715695791042	-0.6123664779818154	-0.29606405757186055	1.9861103856600997	-0.5233918520285012	-0.30373578023824177	1.9069206275526807	-0.4716236114799184	-0.31274120992341076	1.832978887968287	-0.4267226025174009	-0.2505977905200832	2.003728798249491	-0.6847081031636604	-0.20808347870388127	2.0479473430027775	-0.7249760830603905	-0.2332981993493711	2.094133025339056	-0.6672298575567462
47	1.5666666666666667	-0.2734067999649686	1.8487778684783478	-0.5712477923964072	-0.28816397798985416	1.8436014463787305	-0.5120633105984629																-0.26075060329298144	1.8518434167162787	-0.631238886489537																-0.27512495746923443	1.9967446970338805	-0.6063704299290962	-0.2695006295834585	2.075313768322652	-0.6158012995556197	-0.2962237200934509	1.9885636669546551	-0.5242933878495188	-0.3047249071876726	1.907463239419185	-0.4746788106786001	-0.31253220864627407	1.8338780829374288	-0.4270137284882469	-0.2528940807776684	2.0017849898369864	-0.6826364843135933	-0.21140924635838523	2.0526087249047418	-0.7278334367337741	-0.23551307775867916	2.0930792148476294	-0.6744506696969141
48	1.6	-0.27217143727087284	1.8509613934316658	-0.5768679726786815	-0.28476869131488664	1.8468813258532872	-0.519886386178859																-0.25614389912210667	1.8540030091245063	-0.6361183699944009																-0.2740953205895421	1.9956386776659882	-0.6029861675160384	-0.2695466906450741	2.0762454067307714	-0.6163695666377439	-0.29511592144184495	1.9873438696725467	-0.5208034252398278	-0.30455366459735406	1.9089850220210018	-0.47484796497486836	-0.3134566129613554	1.8358140928756879	-0.43037280026821845	-0.25277098305363105	2.002942128818824	-0.6825152785472928	-0.2114950289147352	2.0523459195590545	-0.7277668317075134	-0.23932296216111099	2.095508545438661	-0.6780191961379898
49	1.6333333333333333	-0.2745202938213233	1.8433738286489905	-0.5737232037130948	-0.28936312925037433	1.838388656697838	-0.5144394031120875																-0.26074885990677943	1.847755785766809	-0.6309514270034262																-0.2741693953448174	1.9967872485905505	-0.6033349868627373	-0.2704101513207477	2.076686598044426	-0.6193633142210059	-0.2960484286932965	1.9898133359530266	-0.524155574093292	-0.3035323551956272	1.908850194060503	-0.47174634725782166	-0.31080223601184115	1.8355764037455369	-0.4292040495987488	-0.25287921262123897	2.001843289560085	-0.6825585581503416	-0.21128244591007325	2.0540652790462297	-0.7275951700871678	-0.2373304407870184	2.0942689910278633	-0.6802788982852991
50	1.6666666666666667	-0.2741843199145134	1.8468164250091965	-0.5742547043440213	-0.2869518740836329	1.8405167901074957	-0.5169477249187722																-0.2592869791150203	1.8457098471808482	-0.63232962104094																-0.273227295672983	1.9965021652644663	-0.6001416757182335	-0.2686465260810731	2.075553008448083	-0.61333530497748	-0.29405791363314715	1.989449311861987	-0.5179875027931045	-0.30238269952107394	1.906919742302099	-0.4681458092856688	-0.30940183301837815	1.8316910085785747	-0.4255276702839891	-0.25187757691599466	2.0029385578256393	-0.679414285332058	-0.2117845032942154	2.0595276955765267	-0.7300690033768387	-0.23874481148120533	2.095289893625173	-0.6755811967599162
51	1.7	-0.2732162482723786	1.8434136463543718	-0.5750567974617056	-0.2859611956740936	1.8387524058288918	-0.5164411784084411																-0.2578250983232611	1.8436639085948876	-0.6337078150784538																-0.27514564086990095	1.9951599408471363	-0.5977124268960011	-0.2705986812256431	2.074045008896546	-0.6189806518904013	-0.29504130328206685	1.9859573168771747	-0.5202181806483994	-0.30242480507873787	1.9061643035960527	-0.4680573514116015	-0.31008322976750263	1.8302792660692784	-0.4201128133076509	-0.25199036125094293	2.003756387290831	-0.6797427496757307	-0.2148122134928687	2.058741010073429	-0.7309163427380628	-0.2407607330002054	2.0954244717602943	-0.6734211829525868
52	1.7333333333333334	-0.2722481766302438	1.840010867699547	-0.5758588905793898	-0.2849705172645544	1.8369880215502876	-0.5159346318981101																-0.256363217531502	1.8416179700089268	-0.6350860091159676																-0.27327861908701506	1.9939862363201817	-0.5997489654649459	-0.2707788566300126	2.071286633287112	-0.6187105458644477	-0.29525276284698204	1.986016794572599	-0.5206073259528874	-0.30242448401998245	1.9056918564735392	-0.468028823458732	-0.3084541579207868	1.8309150276196335	-0.4219463850905698	-0.2511212865541975	2.0011018762405124	-0.6765187632640813	-0.21531765461746113	2.059434048246648	-0.7329020718984933	-0.24253694279828883	2.0922427464898967	-0.677940056894599
53	1.7666666666666666	-0.27221801219641284	1.8406533131218534	-0.5758173959065022	-0.28397983885501515	1.8352236372716837	-0.515428085387779																-0.2568010792678043	1.8414574485752442	-0.6366390528163325																-0.2751324711544095	1.995345301995945	-0.597771813523644	-0.27274625046698986	2.0712200760536423	-0.6166265393042037	-0.29528978801731653	1.9859333223980062	-0.5207340782666352	-0.30255208154119606	1.9074548998303424	-0.46828253539649706	-0.31044234946816135	1.8328404418668245	-0.4201127246702087	-0.250994940649045	2.0025672957707816	-0.6764466975042214	-0.21440129507618982	2.060059420146406	-0.7298527377824161	-0.24156689489369926	2.0967739662536284	-0.6762132164608954
